<svg width="55" height="24" viewBox="0 0 55 24" fill="none" xmlns="http://www.w3.org/2000/svg">
<path d="M33.7121 13.2636C34.2424 13.6 34.9848 14.0037 35.9242 14.3327C36.3939 14.4972 38.1439 15.0729 40.4697 14.9308C43.5303 14.7439 45.6742 13.428 46.606 12.8374C47.6666 12.1645 48.4697 11.4617 49.0303 10.9084L41.7424 20.8897C41.3106 21.4654 40.3257 22.6093 38.6363 23.357C37.25 23.9701 36.0075 24.0374 35.303 24.0299C33.5454 23.9252 32.3257 23.4393 31.5909 23.0579C30.8333 22.6692 30.1666 22.1757 29.2424 21.4879C28.5151 20.9495 27.9394 20.4785 27.5378 20.1346C27.1363 20.471 26.5606 20.9495 25.8333 21.4879C24.909 22.1757 24.2424 22.6692 23.4848 23.0579C22.75 23.4393 21.5303 23.9252 19.7727 24.0299C19.0681 24.0374 17.8257 23.9701 16.4394 23.357C14.75 22.6093 13.7651 21.4654 13.3333 20.8897L6.04541 10.9084C6.62117 11.5365 7.38632 12.2467 8.37117 12.8972C10.7575 14.4748 13.1439 14.8785 14.5075 14.9907C15.553 15.0654 17.2045 15.043 19.053 14.3925C19.9924 14.0636 20.7651 13.6449 21.3636 13.2636C22.9545 12.1645 24.5454 11.0729 26.1363 9.97383C26.3333 9.89159 26.5909 9.80187 26.8939 9.74953C27.1363 9.70467 27.356 9.6972 27.5378 9.6972C27.7197 9.6972 27.9394 9.70467 28.1818 9.74953C28.4848 9.80187 28.7424 9.89159 28.9394 9.97383C30.5303 11.0654 32.1212 12.1645 33.7121 13.2636Z" fill="url(#paint0_linear_143_62)"/>
<path d="M20.303 13.3383C20.7575 13.3981 21.1288 13.3308 21.3636 13.2636C20.7651 13.6523 19.9924 14.0636 19.053 14.3925C17.2045 15.043 15.553 15.0654 14.5075 14.9907C13.1439 14.8785 10.7575 14.4748 8.37118 12.8972C7.38633 12.2467 6.62117 11.5365 6.04542 10.9084L5.34087 9.93645L0.0378418 2.66916C0.931781 2.06355 1.8333 1.45795 2.72724 0.852338C3.1439 0.642992 3.67421 0.418693 4.31814 0.254207C5.37875 -0.0149515 6.29542 1.78814e-06 6.93178 0.0672915C7.44693 0.127105 8.23481 0.276637 9.09087 0.702805C10.0075 1.15888 10.6288 1.73458 10.9848 2.12337C13.5833 5.61495 16.1894 9.09907 18.7878 12.5907C18.9772 12.7701 19.4924 13.2262 20.303 13.3383Z" fill="url(#paint1_linear_143_62)"/>
<path d="M55.0378 2.66916L49.0302 10.9084C48.4696 11.4692 47.6666 12.172 46.606 12.8374C45.6742 13.428 43.5302 14.7439 40.4696 14.9308C38.1439 15.0729 36.3939 14.4972 35.9242 14.3327C34.9848 14.0037 34.2423 13.6 33.712 13.2636C33.9469 13.3308 34.3181 13.3981 34.7726 13.3383C35.5832 13.2262 36.0984 12.7701 36.2878 12.5907C38.8863 9.09907 41.4923 5.61495 44.0908 2.12337C44.4469 1.73458 45.0681 1.15888 45.9848 0.702805C46.8484 0.276637 47.6363 0.127105 48.1439 0.0672915C48.7726 1.78628e-06 49.6969 -0.0149515 50.7575 0.254207C51.4014 0.418693 51.9317 0.642992 52.3484 0.852338C53.2423 1.45795 54.1439 2.06355 55.0378 2.66916Z" fill="url(#paint2_linear_143_62)"/>
<defs>
<linearGradient id="paint0_linear_143_62" x1="6.04844" y1="16.8624" x2="49.0272" y2="16.8624" gradientUnits="userSpaceOnUse">
<stop stop-color="#CCE0F4"/>
<stop offset="0.0641" stop-color="#C3DCF2"/>
<stop offset="0.1706" stop-color="#A9D2EE"/>
<stop offset="0.3066" stop-color="#80C2E7"/>
<stop offset="0.4649" stop-color="#47ACDE"/>
<stop offset="0.5674" stop-color="#1E9CD7"/>
<stop offset="0.8652" stop-color="#0075BE"/>
<stop offset="0.9944" stop-color="#005B97"/>
</linearGradient>
<linearGradient id="paint1_linear_143_62" x1="0.0378418" y1="7.52348" x2="21.3636" y2="7.52348" gradientUnits="userSpaceOnUse">
<stop stop-color="#CCE0F4"/>
<stop offset="0.0641" stop-color="#C3DCF2"/>
<stop offset="0.1706" stop-color="#A9D2EE"/>
<stop offset="0.3066" stop-color="#80C2E7"/>
<stop offset="0.4649" stop-color="#47ACDE"/>
<stop offset="0.5674" stop-color="#1E9CD7"/>
<stop offset="0.8652" stop-color="#0075BE"/>
<stop offset="0.9944" stop-color="#005B97"/>
</linearGradient>
<linearGradient id="paint2_linear_143_62" x1="33.7105" y1="7.49034" x2="55.0378" y2="7.49034" gradientUnits="userSpaceOnUse">
<stop stop-color="#CCE0F4"/>
<stop offset="0.0641" stop-color="#C3DCF2"/>
<stop offset="0.1706" stop-color="#A9D2EE"/>
<stop offset="0.3066" stop-color="#80C2E7"/>
<stop offset="0.4649" stop-color="#47ACDE"/>
<stop offset="0.5674" stop-color="#1E9CD7"/>
<stop offset="0.8652" stop-color="#0075BE"/>
<stop offset="0.9944" stop-color="#005B97"/>
</linearGradient>
</defs>
</svg>
