<svg width="330" height="70" viewBox="0 0 330 70" fill="none" xmlns="http://www.w3.org/2000/svg">
<path d="M526.5 -569.5V457.5H-178.5V-569.5H526.5Z" fill="#0675B9" stroke="black"/>
<g clip-path="url(#clip0_742_458)">
<path d="M420 31.48L408.167 31.69C396.333 31.9 372.667 32.32 349 34.924C325.333 37.486 301.667 42.274 278 41.014C254.333 39.754 230.667 32.446 207 28.414C183.333 24.34 159.667 23.5 136 29.044C112.333 34.546 88.6667 46.474 65 48.406C41.3333 50.38 17.6667 42.4 5.83334 38.41L-6 34.42V118.42H5.83334C17.6667 118.42 41.3333 118.42 65 118.42C88.6667 118.42 112.333 118.42 136 118.42C159.667 118.42 183.333 118.42 207 118.42C230.667 118.42 254.333 118.42 278 118.42C301.667 118.42 325.333 118.42 349 118.42C372.667 118.42 396.333 118.42 408.167 118.42H420V31.48Z" fill="#53B1E0"/>
<path d="M420 39.4601L408.167 39.5441C396.333 39.5861 372.667 39.7541 349 40.8041C325.333 41.8541 301.667 43.7861 278 40.9301C254.333 38.0741 230.667 30.3461 207 34.7141C183.333 39.0401 159.667 55.4201 136 57.7301C112.333 60.0401 88.6667 48.2801 65 46.8941C41.3333 45.4661 17.6667 54.4541 5.83334 58.9061L-6 63.4001V118.42H5.83334C17.6667 118.42 41.3333 118.42 65 118.42C88.6667 118.42 112.333 118.42 136 118.42C159.667 118.42 183.333 118.42 207 118.42C230.667 118.42 254.333 118.42 278 118.42C301.667 118.42 325.333 118.42 349 118.42C372.667 118.42 396.333 118.42 408.167 118.42H420V39.4601Z" fill="#229DD8"/>
<path d="M420 68.02L408.167 64.45C396.333 60.88 372.667 53.74 349 53.404C325.333 53.026 301.667 59.494 278 63.484C254.333 67.474 230.667 68.986 207 68.44C183.333 67.894 159.667 65.206 136 63.064C112.333 60.88 88.6667 59.2 65 56.764C41.3333 54.286 17.6667 51.094 5.83334 49.456L-6 47.86V118.42H5.83334C17.6667 118.42 41.3333 118.42 65 118.42C88.6667 118.42 112.333 118.42 136 118.42C159.667 118.42 183.333 118.42 207 118.42C230.667 118.42 254.333 118.42 278 118.42C301.667 118.42 325.333 118.42 349 118.42C372.667 118.42 396.333 118.42 408.167 118.42H420V68.02Z" fill="#0D86C9"/>
<path d="M420 84.82L408.167 82.09C396.333 79.36 372.667 73.9 349 74.236C325.333 74.614 301.667 80.746 278 80.116C254.333 79.486 230.667 72.094 207 70.036C183.333 68.02 159.667 71.38 136 70.96C112.333 70.54 88.6667 66.34 65 64.534C41.3333 62.686 17.6667 63.274 5.83334 63.526L-6 63.82V118.42H5.83334C17.6667 118.42 41.3333 118.42 65 118.42C88.6667 118.42 112.333 118.42 136 118.42C159.667 118.42 183.333 118.42 207 118.42C230.667 118.42 254.333 118.42 278 118.42C301.667 118.42 325.333 118.42 349 118.42C372.667 118.42 396.333 118.42 408.167 118.42H420V84.82Z" fill="#037AC4"/>
</g>
<rect x="-0.5" y="0.5" width="425" height="251" transform="matrix(-1 0 0 1 419 -134)" stroke="black"/>
<defs>
<clipPath id="clip0_742_458">
<rect width="426" height="252" transform="matrix(-1 0 0 1 420 -134)" fill="white"/>
</clipPath>
</defs>
</svg>
