<svg width="1440" height="1028" viewBox="0 0 1440 1028" fill="none" xmlns="http://www.w3.org/2000/svg">
<path d="M-27 0H1440V1028H-27V0Z" fill="#0E87CA"/>
<g clip-path="url(#clip0_602_161)">
<path d="M1720 686.527L1667.83 687.455C1615.67 688.383 1511.33 690.24 1407 701.751C1302.67 713.077 1198.33 734.243 1094 728.673C989.667 723.103 885.333 690.797 781 672.973C676.667 654.963 572.333 651.25 468 675.758C363.667 700.08 259.333 752.81 155 761.35C50.6667 770.077 -53.6666 734.8 -105.833 717.162L-158 699.523V1070.86H-105.833C-53.6666 1070.86 50.6667 1070.86 155 1070.86C259.333 1070.86 363.667 1070.86 468 1070.86C572.333 1070.86 676.667 1070.86 781 1070.86C885.333 1070.86 989.667 1070.86 1094 1070.86C1198.33 1070.86 1302.67 1070.86 1407 1070.86C1511.33 1070.86 1615.67 1070.86 1667.83 1070.86H1720V686.527Z" fill="#53B1E0"/>
<path d="M1720 721.803L1667.83 722.175C1615.67 722.36 1511.33 723.103 1407 727.745C1302.67 732.386 1198.33 740.927 1094 728.302C989.667 715.676 885.333 681.514 781 700.823C676.667 719.947 572.333 792.357 468 802.568C363.667 812.78 259.333 760.793 155 754.666C50.6667 748.354 -53.6666 788.086 -105.833 807.767L-158 827.633V1070.86H-105.833C-53.6666 1070.86 50.6667 1070.86 155 1070.86C259.333 1070.86 363.667 1070.86 468 1070.86C572.333 1070.86 676.667 1070.86 781 1070.86C885.333 1070.86 989.667 1070.86 1094 1070.86C1198.33 1070.86 1302.67 1070.86 1407 1070.86C1511.33 1070.86 1615.67 1070.86 1667.83 1070.86H1720V721.803Z" fill="#229DD8"/>
<path d="M1720 848.057L1667.83 832.275C1615.67 816.493 1511.33 784.93 1407 783.445C1302.67 781.774 1198.33 810.366 1094 828.005C989.667 845.643 885.333 852.327 781 849.913C676.667 847.5 572.333 835.617 468 826.148C363.667 816.493 259.333 809.067 155 798.298C50.6667 787.344 -53.6666 773.233 -105.833 765.992L-158 758.937V1070.86H-105.833C-53.6666 1070.86 50.6667 1070.86 155 1070.86C259.333 1070.86 363.667 1070.86 468 1070.86C572.333 1070.86 676.667 1070.86 781 1070.86C885.333 1070.86 989.667 1070.86 1094 1070.86C1198.33 1070.86 1302.67 1070.86 1407 1070.86C1511.33 1070.86 1615.67 1070.86 1667.83 1070.86H1720V848.057Z" fill="#0D86C9"/>
<path d="M1720 922.323L1667.83 910.255C1615.67 898.187 1511.33 874.05 1407 875.535C1302.67 877.206 1198.33 904.314 1094 901.529C989.667 898.744 885.333 866.066 781 856.969C676.667 848.057 572.333 862.91 468 861.053C363.667 859.197 259.333 840.63 155 832.646C50.6665 824.477 -53.6667 827.076 -105.833 828.19L-158 829.49V1070.86H-105.833C-53.6667 1070.86 50.6665 1070.86 155 1070.86C259.333 1070.86 363.667 1070.86 468 1070.86C572.333 1070.86 676.667 1070.86 781 1070.86C885.333 1070.86 989.667 1070.86 1094 1070.86C1198.33 1070.86 1302.67 1070.86 1407 1070.86C1511.33 1070.86 1615.67 1070.86 1667.83 1070.86H1720V922.323Z" fill="#037AC4"/>
<path d="M1720 970.597L1667.83 967.812C1615.67 965.027 1511.33 959.457 1407 957.229C1302.67 955.186 1198.33 956.3 1094 948.688C989.667 940.89 885.333 924.18 781 917.125C676.667 909.884 572.333 912.483 468 914.525C363.667 916.753 259.333 918.61 155 931.05C50.6667 943.304 -53.6666 966.326 -105.833 977.652L-158 989.163V1070.86H-105.833C-53.6666 1070.86 50.6667 1070.86 155 1070.86C259.333 1070.86 363.667 1070.86 468 1070.86C572.333 1070.86 676.667 1070.86 781 1070.86C885.333 1070.86 989.667 1070.86 1094 1070.86C1198.33 1070.86 1302.67 1070.86 1407 1070.86C1511.33 1070.86 1615.67 1070.86 1667.83 1070.86H1720V970.597Z" fill="#0772B8"/>
<g filter="url(#filter0_f_602_161)">
<ellipse cx="184.942" cy="226.089" rx="1026.91" ry="573.298" transform="rotate(-45.1024 184.942 226.089)" fill="#0069AD"/>
</g>
<g filter="url(#filter1_f_602_161)">
<ellipse cx="1846.99" cy="-163.778" rx="1026.91" ry="573.298" transform="rotate(-1.2307 1846.99 -163.778)" fill="#0069AD"/>
</g>
</g>
<defs>
<filter id="filter0_f_602_161" x="-1542.06" y="-1502.47" width="3453.99" height="3457.12" filterUnits="userSpaceOnUse" color-interpolation-filters="sRGB">
<feFlood flood-opacity="0" result="BackgroundImageFix"/>
<feBlend mode="normal" in="SourceGraphic" in2="BackgroundImageFix" result="shape"/>
<feGaussianBlur stdDeviation="448" result="effect1_foregroundBlur_602_161"/>
</filter>
<filter id="filter1_f_602_161" x="-75.7622" y="-1633.38" width="3845.5" height="2939.2" filterUnits="userSpaceOnUse" color-interpolation-filters="sRGB">
<feFlood flood-opacity="0" result="BackgroundImageFix"/>
<feBlend mode="normal" in="SourceGraphic" in2="BackgroundImageFix" result="shape"/>
<feGaussianBlur stdDeviation="448" result="effect1_foregroundBlur_602_161"/>
</filter>
<clipPath id="clip0_602_161">
<rect width="1878" height="1114" fill="white" transform="matrix(-1 0 0 1 1720 -45)"/>
</clipPath>
</defs>
</svg>
